<?xml version="1.0" encoding="UTF-8"?>
<svg width="40px" height="40px" viewBox="0 0 40 40" version="1.1" xmlns="http://www.w3.org/2000/svg" xmlns:xlink="http://www.w3.org/1999/xlink">
    <!-- Generator: Sketch 43.2 (39069) - http://www.bohemiancoding.com/sketch -->
    <title>Artboard</title>
    <desc>Created with Sketch.</desc>
    <defs></defs>
    <g id="Page-1" stroke="none" stroke-width="1" fill="none" fill-rule="evenodd">
        <g id="Artboard" fill-rule="nonzero" fill="#FFFFFF">
            <path d="M20.2779678,3.7735784 C17.3739945,3.7404281 16.7922053,0.7154558 11.8014154,0.7154558 C6.3912732,0.7154558 2.6336775,5.6183971 3.6629968,11.4263439 C5.113326,19.6012279 8.2808449,19.2349162 8.2808449,27.8573303 C8.2808449,30.9502609 9.1195495,33.2160894 10.3527437,35.6244646 C11.5461574,37.9499639 16.3032371,41.4920821 15.287178,34.3448599 C14.4783087,28.657912 17.4253775,25.6097345 20.2779678,25.5732691 C23.1239281,25.6097345 26.0759695,28.657912 25.2637852,34.3448599 C24.2460685,41.4920821 27.5213261,39.9522469 30.3026431,35.5929718 C31.7562873,33.310568 32.2701182,30.9502609 32.2701182,27.8573303 C32.2701182,19.2349162 35.4392947,19.6012279 36.8879663,11.4263439 C37.9156281,5.6183971 34.163005,0.7154558 28.7495477,0.7154558 C23.7587579,0.7154558 23.1819412,3.7404281 20.2779678,3.7735784 Z" id="icon-dental"></path>
        </g>
    </g>
</svg>