<svg width="190" height="48" viewBox="0 0 190 48" xmlns="http://www.w3.org/2000/svg"><title>Logo-blue-pewter</title><g fill="none" fill-rule="evenodd"><path d="M19.475 30.473c-2.113-2.192-4.52-3.31-7.16-3.31-2.251 0-4.18.784-5.73 2.312-1.545 1.54-2.328 3.457-2.328 5.706 0 1.562.344 2.98 1.03 4.19.689 1.226 1.672 2.187 2.922 2.88 1.244.684 2.658 1.04 4.188 1.04 1.304 0 2.511-.246 3.592-.726 1.056-.478 2.233-1.355 3.482-2.58.13.131 2.75 2.854 2.89 2.985-1.686 1.626-3.301 2.766-4.804 3.398-1.525.644-3.29.978-5.235.978-3.595 0-6.583-1.16-8.87-3.422C1.155 41.656 0 38.718 0 35.168c0-2.293.525-4.357 1.565-6.138 1.047-1.775 2.563-3.234 4.503-4.323a12.876 12.876 0 0 1 6.318-1.628c1.908 0 3.773.405 5.54 1.206a13.32 13.32 0 0 1 4.523 3.375l-2.974 2.813m6.705 1.121c-1.953 1.777-2.944 4.015-2.944 6.664 0 2.47.875 4.603 2.605 6.332 1.733 1.72 3.844 2.61 6.285 2.61 1.665 0 3.204-.403 4.585-1.19a8.694 8.694 0 0 0 3.284-3.273 9.006 9.006 0 0 0 1.198-4.51 8.78 8.78 0 0 0-1.192-4.462 8.694 8.694 0 0 0-3.33-3.274 9.15 9.15 0 0 0-4.557-1.2c-2.227 0-4.225.778-5.933 2.303m2.538 10.364c-.896-.952-1.355-2.195-1.355-3.713 0-1.479.466-2.709 1.373-3.657.914-.957 2.074-1.438 3.446-1.438 1.398 0 2.572.476 3.474 1.419.902.938 1.355 2.175 1.355 3.676 0 1.494-.46 2.736-1.388 3.695-.908.96-2.073 1.44-3.459 1.44-1.38 0-2.54-.48-3.446-1.422m15.054-18.456h4.146V46.76h-4.146zm9.68 8.092c-1.955 1.777-2.942 4.015-2.942 6.664 0 2.47.876 4.603 2.604 6.332 1.731 1.72 3.844 2.61 6.29 2.61 1.661 0 3.2-.403 4.582-1.19a8.726 8.726 0 0 0 3.279-3.273 8.983 8.983 0 0 0 1.202-4.51c0-1.586-.4-3.091-1.193-4.462a8.759 8.759 0 0 0-3.328-3.274 9.166 9.166 0 0 0-4.56-1.2c-2.22 0-4.22.778-5.934 2.303M56 41.958c-.907-.952-1.361-2.195-1.361-3.713 0-1.479.46-2.709 1.375-3.657.915-.957 2.072-1.438 3.442-1.438 1.403 0 2.57.476 3.473 1.419.9.938 1.36 2.175 1.36 3.676 0 1.494-.464 2.736-1.384 3.695-.916.96-2.085 1.44-3.466 1.44-1.382 0-2.54-.48-3.44-1.422M78.321 29.77c-.786.309-1.676.886-2.654 1.7l-.166.143v-1.882h-4.15V46.76h4.15v-6.815c0-1.82.065-2.968.195-3.522.247-1.048.698-1.882 1.338-2.476.65-.597 1.438-.898 2.343-.898.695 0 1.29.182 1.771.542.47.373.81.909 1.003 1.6.19.692.282 2.036.282 4.127v7.442h4.087V35.471c0-1.945-.495-3.442-1.475-4.422-1.176-1.175-2.617-1.758-4.299-1.758a6.4 6.4 0 0 0-2.425.48m12.134-.041h4.149v17.03h-4.149zm9.835 2.066c-1.554 1.678-2.342 3.853-2.342 6.484 0 2.517.815 4.657 2.411 6.353 1.617 1.7 3.54 2.567 5.738 2.567.972 0 1.893-.174 2.733-.53.835-.34 1.68-.92 2.523-1.707l.166-.168v1.965h4.15V29.73h-4.15v2.05l-.171-.185c-.765-.761-1.604-1.345-2.5-1.731a7.23 7.23 0 0 0-2.88-.573c-2.222 0-4.128.845-5.678 2.505m1.787 6.431c0-1.493.453-2.738 1.36-3.698.899-.964 2.05-1.442 3.414-1.442 1.396 0 2.566.465 3.478 1.42.917.941 1.371 2.186 1.371 3.704 0 1.552-.454 2.823-1.37 3.781-.913.962-2.076 1.446-3.46 1.446-1.349 0-2.498-.498-3.415-1.471-.915-.973-1.378-2.232-1.378-3.74m17.741-15.147h4.146v23.68h-4.146zm15.535-.012V46.76h10.746v-4.035h-6.489V23.068h-4.257m25.137.376c-.655.535-1.052 1.273-1.163 2.19-.056.408-.099 1.751-.109 3.99v.108h-1.549v3.449h1.549V46.76h4.154V33.18h2.746v-3.448h-2.746l.012-2.261c0-.532.094-.878.283-1.056.265-.234.663-.353 1.19-.353.382 0 .87.095 1.445.25v-3.084c-1.088-.385-2.09-.589-2.956-.589-1.226 0-2.19.269-2.856.805m9.21 8.416c-1.68 1.705-2.534 3.886-2.534 6.479 0 2.52.853 4.653 2.54 6.333 1.68 1.675 3.89 2.528 6.579 2.528 1.727 0 3.236-.312 4.492-.92 1.225-.592 2.28-1.517 3.163-2.742-.224-.1-3.374-1.568-3.486-1.62-1.175 1.116-2.582 1.685-4.204 1.685-1.381 0-2.538-.37-3.43-1.113-.882-.736-1.446-1.745-1.647-2.992l-.02-.12h13.992c.01-.155.02-.723.02-.723 0-2.799-.851-5.09-2.54-6.795-1.679-1.706-3.89-2.568-6.589-2.568-2.524 0-4.662.862-6.336 2.568m6.544.88c1.136 0 2.152.309 3.014.917.863.615 1.446 1.426 1.74 2.395l.04.136h-9.743l.07-.146c.492-1.072 1.043-1.839 1.622-2.277.932-.678 2.031-1.026 3.257-1.026" fill="#265B80"/><path d="M148.902 17.768c0 2.2 1.295 3.996 2.877 3.996 1.583 0 2.868-1.795 2.868-3.996 0-2.208-1.285-3.998-2.868-3.998-1.582 0-2.877 1.79-2.877 3.998m-21.557-6.14c0 3.657 1.045 6.75 2.268 6.75 1.237 0 2.273-3.093 2.273-6.75 0-3.66-1.036-6.749-2.273-6.749-1.223 0-2.268 3.09-2.268 6.749m-38.176 7.634c0 1.978 1.618 3.586 3.607 3.586 1.994 0 3.61-1.608 3.61-3.586 0-1.986-1.616-3.588-3.61-3.588-1.989 0-3.607 1.602-3.607 3.588m17.028-.118c1.734 0 3.153-2.053 3.153-4.57 0-2.521-1.419-4.576-3.153-4.576-1.739 0-3.155 2.055-3.155 4.577 0 2.516 1.416 4.57 3.155 4.57m32.161-13.602c0 2.796 1.206 5.074 2.686 5.074 1.477 0 2.685-2.278 2.685-5.074 0-2.805-1.15-5.089-2.627-5.089-1.484 0-2.744 2.284-2.744 5.09m-22.456 2.502c0 2.98 1.05 5.405 2.35 5.405 1.303 0 2.362-2.424 2.362-5.405 0-2.979-1.059-5.4-2.361-5.4-1.3 0-2.35 2.421-2.35 5.4" fill="#5B7183"/><path fill="#265B80" d="M149.704 29.73h4.152v17.03h-4.152z"/><path d="M187.02 44.709h.262c.274 0 .533-.086.533-.321 0-.197-.136-.346-.496-.346-.148 0-.235.013-.298.026v.64zm0 1.16h-.384v-2.061c.211-.036.435-.061.72-.061.348 0 .522.06.647.16a.532.532 0 0 1 .209.445c0 .245-.186.407-.397.48v.025c.176.074.274.234.337.506.06.308.111.432.161.505h-.398c-.063-.073-.113-.258-.173-.53-.05-.234-.186-.334-.473-.334h-.248v.864zm-1.226-1.086c0 .912.681 1.629 1.601 1.629.88.013 1.552-.717 1.552-1.617 0-.901-.672-1.628-1.577-1.628-.895 0-1.576.727-1.576 1.616zm3.588 0c0 1.122-.87 1.986-2 1.986-1.131 0-2.023-.864-2.023-1.986 0-1.1.892-1.963 2.036-1.963 1.116 0 1.987.864 1.987 1.963z" fill="#5B7183"/></g></svg>